<?xml version="1.0" encoding="utf-8"?>
<!-- Generator: Adobe Illustrator 25.2.1, SVG Export Plug-In . SVG Version: 6.00 Build 0)  -->
<svg version="1.1" id="Layer_1" xmlns="http://www.w3.org/2000/svg" xmlns:xlink="http://www.w3.org/1999/xlink" x="0px" y="0px"
	 viewBox="0 0 200 65" style="enable-background:new 0 0 200 65;" xml:space="preserve">
<style type="text/css">
	.st0{fill:#FFFFFF;}
</style>
<g>
	<path class="st0" d="M14.6,28.2H25V17.1h-6.5c-3.8,0-5.7-1.9-5.7-5.6v-11H0v13.2C0,23.1,5.2,28.2,14.6,28.2z"/>
	<g>
		<path class="st0" d="M12.7,46.6V28.2H0v20.7c0,9.4,5.2,14.5,14.6,14.5H25V52.2h-6.5C14.6,52.2,12.7,50.3,12.7,46.6z"/>
		<path class="st0" d="M32.6,31.8v31.6h12.7V34c0-3.7,1.9-5.6,5.7-5.6h6.5V17.3H47.2C37.8,17.3,32.6,22.4,32.6,31.8z"/>
		<path class="st0" d="M84.7,15.7c-14.3,0-24.6,10.2-24.6,24.5c0,14.1,10.2,24.5,24.8,24.5c8,0,14.3-2.7,18.9-8.9l-7.1-7.5
			c-3,3.8-6.5,5.4-11.6,5.4c-6,0-11.1-3.2-11.8-9.5h33.9c0.2-1.1,0.3-2.7,0.3-4C107.5,25.9,98.4,15.7,84.7,15.7z M73.3,36.1
			c1.3-5.9,5.2-9.4,11.3-9.4c5.6,0,9.5,3.8,10.3,9.4H73.3z"/>
		<path class="st0" d="M188.5,18.9c0,2.5,0.2,3.3,0.2,4.1h-0.3c-2.4-4.3-7.8-7.3-14.9-7.3c-13.2,0-23.1,10-23.1,24.5
			s9.4,24.5,22.6,24.5c7,0,12.7-3,15.4-7.8h0.3c0,1-0.2,2.2-0.2,4.3v2.1H200V17.2h-11.5V18.9L188.5,18.9z M174.6,52.9
			c-6.8,0-11.9-5.2-11.9-12.9c0-7.5,5.1-12.7,11.9-12.7c7.1,0,12.2,5.2,12.2,12.7C186.8,47.7,181.7,52.9,174.6,52.9z"/>
		<rect x="132.6" y="0.5" class="st0" width="12.7" height="62.9"/>
		<rect x="112.9" y="0.5" class="st0" width="12.7" height="62.9"/>
	</g>
</g>
</svg>
