<?xml version="1.0" encoding="utf-8"?>
<!-- Generator: Adobe Illustrator 25.4.1, SVG Export Plug-In . SVG Version: 6.00 Build 0)  -->
<svg version="1.1" id="Layer_1" xmlns="http://www.w3.org/2000/svg" xmlns:xlink="http://www.w3.org/1999/xlink" x="0px" y="0px"
	 viewBox="0 0 200 120" style="enable-background:new 0 0 200 120;" xml:space="preserve">
<style type="text/css">
	.st0{fill:#161E3C;}
	.st1{fill:#E15C14;}
</style>
<g>
	<g>
		<path class="st0" d="M182.6,8.5"/>
	</g>
	<path class="st0" d="M181,65.3v1.8c0,5.2-2.7,7.9-8.2,7.9h-19.7V30H135v63c0,5.2-2.7,7.9-8.2,7.9H122v17h10.2
		c13.4,0,20.8-7.2,20.8-20.6V92h25.1c13.4,0,20.8-7.2,20.8-20.6v-6.1H181z"/>
	<path class="st0" d="M106,119.7c5.7,0,10.2-4.3,10.2-10.2c0-5.7-4.5-10.2-10.2-10.2s-10,4.5-10,10.2
		C96,115.4,100.3,119.7,106,119.7z"/>
	<path class="st0" d="M102.8,30v37.1c0,5.2-2.7,7.9-8.2,7.9H73.9c0.1-1.2,0.2-72.7,0.2-72.7H55.9v64.8c0,5.2-2.7,7.9-8.2,7.9h-8.2
		V20.7h-18v54.4H0v17h100.1c13.4,0,20.8-7.2,20.8-20.6V30H102.8z"/>
	<circle class="st0" cx="81.5" cy="109.5" r="10.2"/>
	<path class="st0" d="M189.8,20.5c5.7,0,10.2-4.5,10.2-10c0-5.9-4.5-10.2-10.2-10.2c-5.9,0-10.2,4.3-10.2,10.2
		C179.6,15.9,183.9,20.5,189.8,20.5z"/>
	<path class="st0" d="M165.3,20.5c5.7,0,10.2-4.5,10.2-10c0-5.9-4.5-10.2-10.2-10.2s-10.2,4.3-10.2,10.2
		C155.2,15.9,159.7,20.5,165.3,20.5z"/>
	<path class="st1" d="M181,30v35.3c11.9-0.8,17.9-7.9,17.9-20.5V30H181z"/>
</g>
</svg>
